Coordinates
version=1
nRows=17
nColumns=27
inDegrees=yes

Units are S.I. units (second, meters, Newtons, ...)
If the header above contains a line with 'inDegrees', this indicates whether rotational values are in degrees (yes) or radians (no).

endheader
time	pelvis_rotation	pelvis_tilt	pelvis_list	pelvis_tx	pelvis_ty	pelvis_tz	hip_flexion_r	hip_adduction_r	hip_rotation_r	knee_angle_r	knee_rotation_r	knee_adduction_r	knee_angle_r_beta	ankle_angle_r	subtalar_angle_r	mtp_angle_r	hip_flexion_l	hip_adduction_l	hip_rotation_l	knee_angle_l	knee_rotation_l	knee_adduction_l	knee_angle_l_beta	ankle_angle_l	subtalar_angle_l	mtp_angle_l
      4.64000000	     10.02470040	    -34.09201370	      5.94335533	      0.03047758	      0.44339167	     -1.16157353	    137.13028543	    -47.94362110	     33.11288546	    110.20549658	      0.00000000	      9.88665776	      1.92344877	     17.22642495	      0.00000000	      0.00000000	    125.70772739	    -22.63952012	     22.17187119	    108.09720652	      0.00000000	     -9.94987774	      1.88665217	     18.17993630	      0.00000000	      0.00000000
      4.64500000	     10.09383257	    -34.13853089	      5.94746635	      0.03007374	      0.44378788	     -1.16161910	    137.10042351	    -47.95991721	     33.07199639	    110.14615067	      0.00000000	      9.88612191	      1.92241299	     17.18204651	      0.00000000	      0.00000000	    125.75005997	    -22.56397769	     22.12134370	    108.03255567	      0.00000000	     -9.94973357	      1.88552380	     18.08186274	      0.00000000	      0.00000000
      4.65000000	     10.16091177	    -34.18418558	      5.97066163	      0.02964473	      0.44422192	     -1.16166268	    137.08363587	    -47.95516665	     33.04052990	    110.08449326	      0.00000000	      9.88553907	      1.92133686	     17.16420612	      0.00000000	      0.00000000	    125.76926353	    -22.50629887	     22.04424515	    107.95522881	      0.00000000	     -9.94957328	      1.88417419	     18.01241922	      0.00000000	      0.00000000
      4.65500000	     10.25447009	    -34.20200489	      6.12504667	      0.02922961	      0.44471924	     -1.16183603	    137.19257908	    -47.87664785	     33.19344152	    110.01746390	      0.00000000	      9.88492876	      1.92016698	     17.07645415	      0.00000000	      0.00000000	    125.68588681	    -22.50688910	     21.81709925	    107.87062237	      0.00000000	     -9.94942005	      1.88269753	     17.96705806	      0.00000000	      0.00000000
      4.66000000	     10.29816576	    -34.28024264	      6.02919730	      0.02869486	      0.44534483	     -1.16178741	    137.03111352	    -47.91949927	     32.97983311	    109.92953801	      0.00000000	      9.88417555	      1.91863238	     17.08683252	      0.00000000	      0.00000000	    125.77091138	    -22.39101927	     21.85127860	    107.76570721	      0.00000000	     -9.94925633	      1.88086641	     17.87849922	      0.00000000	      0.00000000
      4.66500000	     10.40652004	    -34.30680831	      6.19801434	      0.02825126	      0.44589715	     -1.16193042	    137.17966484	    -47.85574974	     33.13650443	    109.86662078	      0.00000000	      9.88358563	      1.91753427	     16.99438368	      0.00000000	      0.00000000	    125.69313266	    -22.39037136	     21.61004037	    107.67279108	      0.00000000	     -9.94906587	      1.87924472	     17.79723324	      0.00000000	      0.00000000
      4.67000000	     10.44456084	    -34.36910859	      6.21384950	      0.02772522	      0.44665600	     -1.16199334	    137.10305704	    -47.81564667	     33.04127022	    109.76405095	      0.00000000	      9.88261681	      1.91574409	     16.92480587	      0.00000000	      0.00000000	    125.69457422	    -22.37558187	     21.50096290	    107.55572251	      0.00000000	     -9.94893986	      1.87720149	     17.72098082	      0.00000000	      0.00000000
      4.67500000	     10.52932329	    -34.43461220	      6.06189064	      0.02720938	      0.44751226	     -1.16192031	    136.86900819	    -47.98537161	     32.73018679	    109.64601642	      0.00000000	      9.88182213	      1.91368400	     16.86976167	      0.00000000	      0.00000000	    125.77257296	    -22.19551838	     21.55999306	    107.41789098	      0.00000000	     -9.94866461	      1.87479587	     17.59586416	      0.00000000	      0.00000000
      4.68000000	     10.60422068	    -34.49757844	      6.28659733	      0.02657943	      0.44832964	     -1.16211939	    137.01317842	    -47.80675901	     32.89141668	    109.53735829	      0.00000000	      9.88107446	      1.91178756	     16.77959041	      0.00000000	      0.00000000	    125.66613954	    -22.26185706	     21.23723761	    107.27863084	      0.00000000	     -9.94840607	      1.87236533	     17.53202330	      0.00000000	      0.00000000
      4.68500000	     10.70441213	    -34.54319093	      6.31900622	      0.02602825	      0.44927612	     -1.16220943	    136.92500788	    -47.83828529	     32.80851281	    109.41017668	      0.00000000	      9.88021677	      1.90956782	     16.74453275	      0.00000000	      0.00000000	    125.61834449	    -22.17962194	     21.09436235	    107.13005951	      0.00000000	     -9.94813559	      1.86977227	     17.44599680	      0.00000000	      0.00000000
      4.69000000	     10.75751927	    -34.63854380	      6.19215183	      0.02540014	      0.45030805	     -1.16216477	    136.70297174	    -47.92812210	     32.49231905	    109.27256449	      0.00000000	      9.87909443	      1.90716603	     16.66990259	      0.00000000	      0.00000000	    125.68970530	    -22.04675889	     21.11790097	    106.96969227	      0.00000000	     -9.94787454	      1.86697333	     17.32241303	      0.00000000	      0.00000000
      4.69500000	     10.84494773	    -34.69701987	      6.25777948	      0.02476382	      0.45135785	     -1.16228174	    136.63515605	    -47.90954005	     32.42027812	    109.13181824	      0.00000000	      9.87809694	      1.90470955	     16.64932265	      0.00000000	      0.00000000	    125.62495348	    -21.99584722	     20.93735932	    106.80401288	      0.00000000	     -9.94753950	      1.86408168	     17.23954670	      0.00000000	      0.00000000
      4.70000000	     10.91232070	    -34.75895953	      6.26430422	      0.02410815	      0.45250445	     -1.16236116	    136.51007317	    -47.91463721	     32.26499980	    108.97496781	      0.00000000	      9.87696474	      1.90197199	     16.50312015	      0.00000000	      0.00000000	    125.58371214	    -21.93196255	     20.80758457	    106.62714432	      0.00000000	     -9.94721819	      1.86099474	     17.11868634	      0.00000000	      0.00000000
      4.70500000	     10.98498484	    -34.82419040	      6.29361062	      0.02342555	      0.45371361	     -1.16246195	    136.38384722	    -47.90829666	     32.11993866	    108.81001596	      0.00000000	      9.87576325	      1.89909304	     16.43270499	      0.00000000	      0.00000000	    125.52306471	    -21.87411565	     20.65097556	    106.43862768	      0.00000000	     -9.94684248	      1.85770450	     17.01465565	      0.00000000	      0.00000000
      4.71000000	     11.03714482	    -34.89083653	      6.30656994	      0.02271776	      0.45499342	     -1.16254404	    136.22609047	    -47.88880510	     31.93933108	    108.63549108	      0.00000000	      9.87456048	      1.89604700	     16.34181549	      0.00000000	      0.00000000	    125.45923741	    -21.82773132	     20.50415573	    106.24171730	      0.00000000	     -9.94645550	      1.85426777	     16.91327982	      0.00000000	      0.00000000
      4.71500000	     11.12187596	    -34.94799197	      6.35072784	      0.02200933	      0.45632340	     -1.16267643	    136.09314158	    -47.88929862	     31.80150902	    108.45327373	      0.00000000	      9.87322166	      1.89286671	     16.24446943	      0.00000000	      0.00000000	    125.36619774	    -21.76073799	     20.32204240	    106.03613075	      0.00000000	     -9.94603822	      1.85067961	     16.80329668	      0.00000000	      0.00000000
      4.72000000	     11.19185668	    -35.01244533	      6.38215871	      0.02125913	      0.45772681	     -1.16279952	    135.93834786	    -47.87956227	     31.63046959	    108.26267570	      0.00000000	      9.87183026	      1.88954015	     16.16694933	      0.00000000	      0.00000000	    125.27862136	    -21.70470663	     20.14518851	    105.82005476	      0.00000000	     -9.94558781	      1.84690837	     16.69350353	      0.00000000	      0.00000000
